<?xml version="1.0" encoding="iso-8859-1"?>
<!-- Generator: Adobe Illustrator 19.0.0, SVG Export Plug-In . SVG Version: 6.00 Build 0)  -->
<svg version="1.1" id="Capa_1" xmlns="http://www.w3.org/2000/svg" xmlns:xlink="http://www.w3.org/1999/xlink" x="0px" y="0px"
	 viewBox="0 0 512 512" style="enable-background:new 0 0 512 512;" xml:space="preserve">
<g>
	<path style="fill:#455A64;" d="M501.333,96H138.667C132.776,96,128,91.224,128,85.333c0-5.891,4.776-10.667,10.667-10.667h362.667
		c5.891,0,10.667,4.776,10.667,10.667C512,91.224,507.224,96,501.333,96z"/>
	<path style="fill:#455A64;" d="M501.333,266.667H138.667c-5.891,0-10.667-4.776-10.667-10.667c0-5.891,4.776-10.667,10.667-10.667
		h362.667c5.891,0,10.667,4.776,10.667,10.667C512,261.891,507.224,266.667,501.333,266.667z"/>
	<path style="fill:#455A64;" d="M501.333,437.333H138.667c-5.891,0-10.667-4.776-10.667-10.667c0-5.891,4.776-10.667,10.667-10.667
		h362.667c5.891,0,10.667,4.776,10.667,10.667C512,432.558,507.224,437.333,501.333,437.333z"/>
</g>
<g>
	<circle style="fill:#2196F3;" cx="53.333" cy="256" r="53.333"/>
	<circle style="fill:#2196F3;" cx="53.333" cy="426.667" r="53.333"/>
	<circle style="fill:#2196F3;" cx="53.333" cy="85.333" r="53.333"/>
</g>
<g>
</g>
<g>
</g>
<g>
</g>
<g>
</g>
<g>
</g>
<g>
</g>
<g>
</g>
<g>
</g>
<g>
</g>
<g>
</g>
<g>
</g>
<g>
</g>
<g>
</g>
<g>
</g>
<g>
</g>
</svg>
