<?xml version="1.0" encoding="iso-8859-1"?>
<!-- Generator: Adobe Illustrator 19.0.0, SVG Export Plug-In . SVG Version: 6.00 Build 0)  -->
<svg version="1.1" id="Layer_1" xmlns="http://www.w3.org/2000/svg" xmlns:xlink="http://www.w3.org/1999/xlink" x="0px" y="0px"
	 viewBox="0 0 491.52 491.52" style="enable-background:new 0 0 491.52 491.52;" xml:space="preserve">
<circle style="fill:#EFC84A;" cx="245.76" cy="245.76" r="245.76"/>
<path style="opacity:0.1;enable-background:new    ;" d="M373.914,151.05h-86.989l-46.08-46.08H117.658l31.334,46.08h-31.386
	c-6.963,0-12.646,5.632-12.646,12.646v210.227c0,3.193,1.249,6.102,3.237,8.331l-0.012,0.014l107.333,107.333
	c9.917,1.218,19.995,1.918,30.242,1.918c130.018,0,236.383-100.984,245.111-228.786L382.874,154.736
	C380.57,152.432,377.395,151.05,373.914,151.05z"/>
<path style="fill:#64798A;" d="M373.918,151.04H117.602c-6.982,0-12.642,5.66-12.642,12.642v210.235
	c0,6.982,5.66,12.642,12.642,12.642h256.315c6.981,0,12.642-5.66,12.642-12.642V163.682C386.56,156.7,380.899,151.04,373.918,151.04
	z"/>
<g>
	<rect x="125.44" y="203.382" style="fill:#EBF0F3;" width="240.64" height="162.698"/>
	<rect x="125.44" y="169.216" style="fill:#EBF0F3;" width="172.068" height="14.556"/>
</g>
<rect x="125.44" y="358.385" style="fill:#D5D6DB;" width="240.64" height="7.695"/>
<circle style="fill:#FCD462;" cx="313.395" cy="176.481" r="7.276"/>
<circle style="fill:#44C4A1;" cx="336.128" cy="176.481" r="7.276"/>
<circle style="fill:#E56353;" cx="358.81" cy="176.481" r="7.276"/>
<rect x="138.445" y="213.704" style="fill:#FCD462;" width="58.281" height="58.276"/>
<rect x="138.445" y="287.232" style="fill:#27A2DB;" width="58.281" height="58.276"/>
<rect x="138.445" y="260.567" style="fill:#F6C358;" width="58.281" height="11.418"/>
<rect x="138.445" y="334.08" style="fill:#2D93BA;" width="58.281" height="11.418"/>
<g>
	<rect x="216.576" y="213.704" style="fill:#D5D6DB;" width="134.973" height="10.24"/>
	<rect x="216.576" y="238.94" style="fill:#D5D6DB;" width="134.973" height="10.24"/>
	<rect x="216.576" y="264.172" style="fill:#D5D6DB;" width="73.298" height="10.24"/>
	<rect x="216.576" y="286.024" style="fill:#D5D6DB;" width="134.973" height="10.24"/>
	<rect x="216.576" y="311.26" style="fill:#D5D6DB;" width="134.973" height="10.24"/>
	<rect x="216.576" y="336.486" style="fill:#D5D6DB;" width="73.298" height="10.24"/>
</g>
<polygon style="fill:#E56353;" points="240.837,104.96 117.639,104.96 164.199,173.426 164.199,242.582 194.276,223.909 
	194.276,173.426 "/>
<g>
</g>
<g>
</g>
<g>
</g>
<g>
</g>
<g>
</g>
<g>
</g>
<g>
</g>
<g>
</g>
<g>
</g>
<g>
</g>
<g>
</g>
<g>
</g>
<g>
</g>
<g>
</g>
<g>
</g>
</svg>
